<svg width="185" height="48" viewBox="0 0 185 48" fill="none" xmlns="http://www.w3.org/2000/svg">
<path d="M60.6759 12.48C60.3719 11.92 59.9319 11.496 59.3559 11.208C58.7959 10.904 58.1319 10.752 57.3639 10.752C56.0359 10.752 54.9719 11.192 54.1719 12.072C53.3719 12.936 52.9719 14.096 52.9719 15.552C52.9719 17.104 53.3879 18.32 54.2199 19.2C55.0679 20.064 56.2279 20.496 57.6999 20.496C58.7079 20.496 59.5559 20.24 60.2439 19.728C60.9479 19.216 61.4599 18.48 61.7799 17.52H56.5719V14.496H65.4999V18.312C65.1959 19.336 64.6759 20.288 63.9399 21.168C63.2199 22.048 62.2999 22.76 61.1799 23.304C60.0599 23.848 58.7959 24.12 57.3879 24.12C55.7239 24.12 54.2359 23.76 52.9239 23.04C51.6279 22.304 50.6119 21.288 49.8759 19.992C49.1559 18.696 48.7959 17.216 48.7959 15.552C48.7959 13.888 49.1559 12.408 49.8759 11.112C50.6119 9.8 51.6279 8.784 52.9239 8.064C54.2199 7.328 55.6999 6.96 57.3639 6.96C59.3799 6.96 61.0759 7.448 62.4519 8.424C63.8439 9.4 64.7639 10.752 65.2119 12.48H60.6759ZM76.3652 24L72.8612 17.64H71.8772V24H67.7732V7.152H74.6612C75.9892 7.152 77.1172 7.384 78.0452 7.848C78.9892 8.312 79.6932 8.952 80.1572 9.768C80.6212 10.568 80.8532 11.464 80.8532 12.456C80.8532 13.576 80.5332 14.576 79.8932 15.456C79.2692 16.336 78.3412 16.96 77.1092 17.328L80.9972 24H76.3652ZM71.8772 14.736H74.4212C75.1732 14.736 75.7332 14.552 76.1012 14.184C76.4852 13.816 76.6772 13.296 76.6772 12.624C76.6772 11.984 76.4852 11.48 76.1012 11.112C75.7332 10.744 75.1732 10.56 74.4212 10.56H71.8772V14.736ZM87.5334 10.44V13.848H93.0294V17.016H87.5334V20.712H93.7494V24H83.4294V7.152H93.7494V10.44H87.5334ZM100.518 10.44V13.848H106.014V17.016H100.518V20.712H106.734V24H96.4138V7.152H106.734V10.44H100.518ZM124.47 24H120.366L113.502 13.608V24H109.398V7.152H113.502L120.366 17.592V7.152H124.47V24ZM150.629 7.152L146.237 24H141.269L138.581 12.912L135.797 24H130.829L126.557 7.152H130.949L133.373 19.416L136.373 7.152H140.885L143.765 19.416L146.213 7.152H150.629ZM163.175 21.024H156.887L155.879 24H151.583L157.679 7.152H162.431L168.527 24H164.183L163.175 21.024ZM162.119 17.856L160.031 11.688L157.967 17.856H162.119ZM184.831 7.152L178.999 18.432V24H174.895V18.432L169.063 7.152H173.719L176.983 14.208L180.223 7.152H184.831ZM57.7729 33.098C57.7729 33.91 57.4929 34.5867 56.9329 35.128C56.3822 35.66 55.5376 35.926 54.3989 35.926H52.5229V40H51.2489V30.242H54.3989C55.5002 30.242 56.3356 30.508 56.9049 31.04C57.4836 31.572 57.7729 32.258 57.7729 33.098ZM54.3989 34.876C55.1082 34.876 55.6309 34.722 55.9669 34.414C56.3029 34.106 56.4709 33.6673 56.4709 33.098C56.4709 31.894 55.7802 31.292 54.3989 31.292H52.5229V34.876H54.3989ZM60.6303 38.964H64.0463V40H59.3563V30.242H60.6303V38.964ZM71.1673 37.83H66.9113L66.1273 40H64.7833L68.3113 30.298H69.7813L73.2953 40H71.9513L71.1673 37.83ZM70.8033 36.794L69.0393 31.866L67.2753 36.794H70.8033ZM82.5049 40H81.2309L76.1069 32.23V40H74.8329V30.228H76.1069L81.2309 37.984V30.228H82.5049V40ZM98.3071 30.312V40H97.0331V32.776L93.8131 40H92.9171L89.6831 32.762V40H88.4091V30.312H89.7811L93.3651 38.32L96.9491 30.312H98.3071ZM106.236 37.83H101.98L101.196 40H99.8516L103.38 30.298H104.85L108.364 40H107.02L106.236 37.83ZM105.872 36.794L104.108 31.866L102.344 36.794H105.872ZM117.573 40H116.299L111.175 32.23V40H109.901V30.228H111.175L116.299 37.984V30.228H117.573V40ZM125.513 37.83H121.257L120.473 40H119.129L122.657 30.298H124.127L127.641 40H126.297L125.513 37.83ZM125.149 36.794L123.385 31.866L121.621 36.794H125.149ZM136.571 33.07C136.3 32.5007 135.908 32.062 135.395 31.754C134.881 31.4367 134.284 31.278 133.603 31.278C132.921 31.278 132.305 31.4367 131.755 31.754C131.213 32.062 130.784 32.51 130.467 33.098C130.159 33.6767 130.005 34.3487 130.005 35.114C130.005 35.8793 130.159 36.5513 130.467 37.13C130.784 37.7087 131.213 38.1567 131.755 38.474C132.305 38.782 132.921 38.936 133.603 38.936C134.555 38.936 135.339 38.6513 135.955 38.082C136.571 37.5127 136.93 36.7427 137.033 35.772H133.141V34.736H138.391V35.716C138.316 36.5187 138.064 37.256 137.635 37.928C137.205 38.5907 136.641 39.118 135.941 39.51C135.241 39.8927 134.461 40.084 133.603 40.084C132.697 40.084 131.871 39.874 131.125 39.454C130.378 39.0247 129.785 38.432 129.347 37.676C128.917 36.92 128.703 36.066 128.703 35.114C128.703 34.162 128.917 33.308 129.347 32.552C129.785 31.7867 130.378 31.194 131.125 30.774C131.871 30.3447 132.697 30.13 133.603 30.13C134.639 30.13 135.553 30.3867 136.347 30.9C137.149 31.4133 137.733 32.1367 138.097 33.07H136.571ZM141.349 31.278V34.54H144.905V35.59H141.349V38.95H145.325V40H140.075V30.228H145.325V31.278H141.349ZM157.151 30.312V40H155.877V32.776L152.657 40H151.761L148.527 32.762V40H147.253V30.312H148.625L152.209 38.32L155.793 30.312H157.151ZM160.585 31.278V34.54H164.141V35.59H160.585V38.95H164.561V40H159.311V30.228H164.561V31.278H160.585ZM174.161 40H172.887L167.763 32.23V40H166.489V30.228H167.763L172.887 37.984V30.228H174.161V40ZM182.339 30.242V31.278H179.679V40H178.405V31.278H175.731V30.242H182.339Z" fill="#153F4F"/>
<path d="M13.5809 3.67464C16.2501 2.56911 19.111 2 22 2V13C20.5554 13 19.125 13.2845 17.7905 13.8374C16.4559 14.3901 15.2432 15.2004 14.2218 16.2218C13.2004 17.2432 12.3901 18.4559 11.8374 19.7905C11.2845 21.125 11 22.5554 11 24H0C0 21.111 0.569108 18.2501 1.67464 15.5809C2.7803 12.9117 4.40075 10.4866 6.44361 8.44361C8.4866 6.40075 10.9117 4.7803 13.5809 3.67464Z" fill="#6BA486"/>
<path d="M0 24C0 26.889 0.569108 29.7499 1.67464 32.4191C2.7803 35.0883 4.40075 37.5134 6.44361 39.5564C8.48659 41.5992 10.9117 43.2197 13.5809 44.3254C16.2501 45.4309 19.111 46 22 46C24.889 46 27.7499 45.4309 30.4191 44.3254C33.0883 43.2197 35.5134 41.5992 37.5564 39.5564C39.5992 37.5134 41.2197 35.0883 42.3254 32.4191C43.4309 29.7499 44 26.889 44 24H33C33 25.4446 32.7155 26.875 32.1626 28.2095C31.6099 29.5441 30.7996 30.7568 29.7782 31.7782C28.7568 32.7996 27.5441 33.6099 26.2095 34.1626C24.875 34.7155 23.4446 35 22 35C20.5554 35 19.125 34.7155 17.7905 34.1626C16.4559 33.6099 15.2432 32.7996 14.2218 31.7782C13.2004 30.7568 12.3901 29.5441 11.8374 28.2095C11.2845 26.875 11 25.4446 11 24H0Z" fill="#6BA486"/>
<path d="M22 17C18.134 17 15 20.134 15 24H29C29 20.134 25.866 17 22 17Z" fill="#153F4F"/>
<path d="M22 31C18.134 31 15 27.866 15 24H29C29 27.866 25.866 31 22 31Z" fill="#153F4F"/>
</svg>
